#!OML:ASF E:\Mandelcareful walks\Project 1\Capture day 1\Session 1\Subject1.ASF
:FULLY-SPECIFIED
:DEGREES
266
root -14.257 8.45108 2.14951 12.3297 85.5499 -43.1751
lowerback 29.1851 2.0754 -1.95525
upperback 9.02711 2.93255 2.49602
thorax -6.13029 1.59739 2.89473
lowerneck -29.8464 11.7534 0.60976
upperneck 25.9332 24.1578 -19.4888
head 17.6954 7.43386 -2.512
rclavicle -1.15295e-014 1.35174e-014
rhumerus 48.4719 8.52385 -37.869
rradius 43.6246
rwrist -22.0814
rhand -51.0127 -61.2861
rfingers 7.12502
rthumb -23.5608 630.137
lclavicle -1.15295e-014 1.35174e-014
lhumerus 26.4927 -8.46145 45.2772
lradius 48.4688
lwrist 25.0725
lhand -51.922 -46.8634
lfingers 7.12502
lthumb -24.4328 -18.4015
rfemur -34.9857 0.392978 23.4443
rtibia 93.0948
rfoot -24.3939 0.607237
rtoes 0.174036
lfemur -34.3735 25.1893 -3.58244
ltibia 94.9184
lfoot -22.2703 2.35412
ltoes -21.1496
267
root -14.3642 8.48828 2.158 9.4238 85.9108 -45.6192
lowerback 29.4977 2.17846 -1.50455
upperback 9.10117 3.22494 2.79694
thorax -6.21181 1.73885 2.86341
lowerneck -30.6798 11.4225 0.30906
upperneck 26.7048 23.7674 -18.6759
head 17.9917 7.2142 -2.23291
rclavicle 1.19271e-014 -3.97569e-016
rhumerus 49.1673 7.67575 -37.2875
rradius 42.1409
rwrist -21.7412
rhand -50.3099 -59.7876
rfingers 7.12502
rthumb -22.8865 631.551
lclavicle 1.19271e-014 -3.97569e-016
lhumerus 24.7882 -10.9181 47.0842
lradius 49.2665
lwrist 25.7365
lhand -51.6664 -45.5796
lfingers 7.12502
lthumb -24.1877 -17.0848
rfemur -35.1994 0.105626 23.576
rtibia 93.7404
rfoot -24.401 0.777535
rtoes -0.559833
lfemur -35.0534 25.2756 -3.34209
ltibia 95.8595
lfoot -22.2609 2.69842
ltoes -20.9133
268
root -14.4546 8.52973 2.16673 7.71555 86.0722 -46.7648
lowerback 29.7619 2.39021 -1.38958
upperback 9.25978 3.56661 3.10108
thorax -6.19271 1.90264 3.0145
lowerneck -29.7829 11.2197 0.70075
upperneck 24.8933 23.1692 -19.9071
head 17.116 7.13234 -2.93056
rclavicle 1.35174e-014 2.82523e-014
rhumerus 49.8655 6.6447 -37.2229
rradius 40.7592
rwrist -20.773
rhand -49.4732 -59.3456
rfingers 7.12502
rthumb -22.0834 631.895
lclavicle 1.35174e-014 2.82523e-014
lhumerus 23.1477 -13.0502 49.3833
lradius 49.5787
lwrist 25.9635
lhand -51.2897 -43.8865
lfingers 7.12502
lthumb -23.8264 -15.3441
rfemur -35.1599 0.113657 23.5949
rtibia 94.2197
rfoot -24.8786 1.49644
rtoes -1.96434
lfemur -35.3358 25.4103 -3.13401
ltibia 96.6486
lfoot -22.2473 2.80865
ltoes -22.8021
269
root -14.5487 8.5679 2.16931 6.05856 86.2164 -47.9464
lowerback 29.9855 2.58833 -1.2032
upperback 9.32938 3.89342 3.29274
thorax -6.24393 2.0588 3.00208
lowerneck -29.984 11.073 0.615847
upperneck 25.0498 22.9276 -19.5997
head 17.1205 7.03998 -2.85398
rclavicle 1.59028e-015 3.24516e-014
rhumerus 50.267 5.66884 -37.5592
rradius 39.3945
rwrist -19.6022
rhand -48.9556 -59.1421
rfingers 7.12502
rthumb -21.5864 632.041
lclavicle 1.59028e-015 3.24516e-014
lhumerus 21.5487 -15.0207 51.9228
lradius 49.7186
lwrist 25.6014
lhand -51.128 -42.6733
lfingers 7.12502
lthumb -23.6713 -14.1107
rfemur -35.2881 0.285308 23.6384
rtibia 94.758
rfoot -25.1212 1.70014
rtoes -3.20191
lfemur -35.6772 25.5637 -2.94651
ltibia 97.4919
lfoot -22.4179 2.82225
ltoes -25.1248
270
root -14.6656 8.59928 2.1622 4.58816 86.446 -49.0074
lowerback 30.2952 2.70367 -0.941795
upperback 9.31075 4.12826 3.4058
thorax -6.41803 2.17148 2.88451
lowerneck -30.0016 10.9073 0.539679
upperneck 24.9586 22.6134 -19.4126
head 16.9793 6.94397 -2.84398
rclavicle -6.44062e-014 -3.29983e-014
rhumerus 50.5867 4.83633 -37.8195
rradius 38.0596
rwrist -18.7098
rhand -48.4779 -58.5952
rfingers 7.12502
rthumb -21.1276 632.536
lclavicle -6.44062e-014 -3.29983e-014
lhumerus 20.154 -16.8514 54.269
lradius 49.6572
lwrist 25.466
lhand -50.6396 -41.7941
lfingers 7.12502
lthumb -23.2029 -13.1718
rfemur -35.7044 0.152492 23.5988
rtibia 95.5076
rfoot -25.2601 2.17446
rtoes -4.09703
lfemur -36.337 25.5844 -2.85031
ltibia 98.4963
lfoot -22.6024 2.89295
ltoes -25.9678
271
root -14.791 8.62886 2.15016 4.53686 86.7062 -48.6259
lowerback 30.5617 2.8036 -0.790273
upperback 9.4022 4.31439 3.46315
thorax -6.4448 2.26242 2.78826
lowerneck -31.228 10.8085 0.0247981
upperneck 26.5061 22.6854 -18.028
head 17.6656 6.84894 -2.18458
rclavicle -8.50798e-014 -3.20043e-014
rhumerus 50.998 3.81235 -38.0432
rradius 36.8111
rwrist -17.7978
rhand -48.1782 -57.8359
rfingers 7.12502
rthumb -20.8396 633.263
lclavicle -8.50798e-014 -3.20043e-014
lhumerus 19.3518 -18.6478 56.141
lradius 49.1343
lwrist 25.1661
lhand -49.8053 -39.8347
lfingers 7.12502
lthumb -22.4022 -11.1138
rfemur -36.1577 -0.259883 23.383
rtibia 96.3699
rfoot -25.4827 3.19813
rtoes -3.87385
lfemur -37.0399 25.335 -2.88976
ltibia 99.5142
lfoot -22.6486 2.99321
ltoes -26.1349
272
root -14.9264 8.66305 2.13673 5.93592 86.925 -46.7767
lowerback 30.9534 2.94579 -0.723652
upperback 9.49903 4.52025 3.42964
thorax -6.52081 2.36237 2.62688
lowerneck -30.7335 10.6174 0.397372
upperneck 24.7908 22.1406 -19.139
head 16.9088 6.7476 -2.80408
rclavicle 2.46493e-014 2.41523e-014
rhumerus 51.4456 2.8312 -37.8031
rradius 35.4461
rwrist -17.2421
rhand -47.945 -57.2315
rfingers 7.12502
rthumb -20.6156 633.843
lclavicle 2.46493e-014 2.41523e-014
lhumerus 19.1763 -20.597 57.5444
lradius 48.0534
lwrist 23.9355
lhand -49.282 -37.2025
lfingers 7.12502
lthumb -21.8998 -8.42191
rfemur -36.7198 -0.633941 23.1035
rtibia 97.3556
rfoot -25.6934 4.13038
rtoes -3.97674
lfemur -37.7201 25.0482 -3.00191
ltibia 100.5
lfoot -22.6333 2.98134
ltoes -25.8828
273
root -15.0593 8.6981 2.12033 6.55935 87.0623 -45.8025
lowerback 31.3644 3.1346 -0.6702
upperback 9.48318 4.76805 3.36226
thorax -6.73225 2.47875 2.41399
lowerneck -30.56 10.5763 0.756117
upperneck 24.1499 21.8583 -19.5042
head 16.6382 6.70274 -3.06505
rclavicle 9.85972e-014 4.5472e-014
rhumerus 51.7835 2.01252 -37.2583
rradius 34.0714
rwrist -17.1629
rhand -47.2336 -57.0563
rfingers 7.12502
rthumb -19.9318 633.946
lclavicle 9.85972e-014 4.5472e-014
lhumerus 19.2924 -22.4591 58.7572
lradius 46.8498
lwrist 22.8165
lhand -48.5328 -34.5158
lfingers 7.12502
lthumb -21.1803 -5.65282
rfemur -37.4123 -0.910248 22.8939
rtibia 98.3654
rfoot -25.5441 4.70709
rtoes -2.83437
lfemur -38.4416 24.9675 -3.04631
ltibia 101.458
lfoot -22.6039 2.81969
ltoes -26.0263
274
root -15.1782 8.73143 2.10476 8.08168 87.126 -44.1254
lowerback 31.5537 3.37851 -0.760323
upperback 9.45487 5.03122 3.26412
thorax -6.86292 2.60045 2.25026
lowerneck -31.1325 10.5199 0.616985
upperneck 24.3773 21.7483 -19.0374
head 16.7374 6.64091 -2.87097
rclavicle -8.11041e-014 -5.19822e-014
rhumerus 52.006 0.858054 -37.3331
rradius 32.9284
rwrist -16.3896
rhand -46.2757 -56.5941
rfingers 7.12502
rthumb -19.0108 634.315
lclavicle -8.11041e-014 -5.19822e-014
lhumerus 19.6106 -23.4545 60.1172
lradius 45.7425
lwrist 21.2828
lhand -47.5614 -35.1544
lfingers 7.12502
lthumb -20.247 -6.1897
rfemur -38.2411 -1.10944 22.6661
rtibia 99.3228
rfoot -25.4951 5.3221
rtoes -2.30389
lfemur -39.2737 24.9522 -3.17228
ltibia 102.343
lfoot -22.4016 2.52043
ltoes -26.2423
275
root -15.3113 8.75981 2.08759 10.7511 87.1589 -41.2706
lowerback 31.7323 3.6491 -0.944581
upperback 9.53882 5.30648 3.18204
thorax -6.86918 2.72964 2.15702
lowerneck -30.9336 10.5067 0.859253
upperneck 23.3493 21.5749 -19.7027
head 16.3421 6.63446 -3.19172
rclavicle -3.65764e-014 -3.1408e-014
rhumerus 52.451 -0.732168 -37.8738
rradius 31.7465
rwrist -14.8383
rhand -45.1907 -55.9829
rfingers 7.12502
rthumb -17.9671 634.827
lclavicle -3.65764e-014 -3.1408e-014
lhumerus 20.4349 -23.3046 61.5835
lradius 44.6282
lwrist 18.9101
lhand -48.1319 -36.9825
lfingers 7.12502
lthumb -20.7952 -8.07684
rfemur -39.1823 -1.29833 22.3767
rtibia 100.378
rfoot -25.4236 5.65548
rtoes -2.66392
lfemur -40.119 24.9336 -3.27954
ltibia 103.311
lfoot -22.0952 1.82812
ltoes -25.2898
276
root -15.446 8.78211 2.06416 12.1024 87.2608 -39.5596
lowerback 32.1548 3.86194 -1.00396
upperback 9.62547 5.55121 3.1003
thorax -6.97109 2.84509 1.99028
lowerneck -30.9101 10.4888 1.01332
upperneck 22.722 21.4896 -20.1695
head 16.1428 6.62821 -3.40279
rclavicle 4.29375e-014 5.15846e-014
rhumerus 52.3377 -2.51921 -39.822
rradius 30.7241
rwrist -11.9071
rhand -44.1645 -54.9162
rfingers 7.12502
rthumb -16.9795 635.806
lclavicle 4.29375e-014 5.15846e-014
lhumerus 21.8188 -22.8436 62.3778
lradius 43.7942
lwrist 17.6018
lhand -47.6544 -35.7233
lfingers 7.12502
lthumb -20.3363 -6.76803
rfemur -39.8356 -1.56049 22.0835
rtibia 101.381
rfoot -25.4777 6.30407
rtoes -3.31397
lfemur -40.6092 24.7899 -3.15085
ltibia 104.272
lfoot -22.23 1.34989
ltoes -24.8008
277
root -15.5771 8.79751 2.03794 11.4237 87.4216 -39.8704
lowerback 32.874 4.05929 -1.04769
upperback 9.33063 5.77824 3.14044
thorax -6.955 2.93788 1.79477
lowerneck -30.8123 10.4426 1.06798
upperneck 22.0648 21.3548 -20.5441
head 15.8778 6.61277 -3.57276
rclavicle 3.18055e-014 2.16675e-014
rhumerus 52.8199 -3.72078 -39.1543
rradius 29.5528
rwrist -11.7407
rhand -43.9944 -53.7065
rfingers 7.12502
rthumb -16.8158 637.002
lclavicle 3.18055e-014 2.16675e-014
lhumerus 23.3105 -22.2381 63.0689
lradius 43.2463
lwrist 17.1709
lhand -48.1646 -39.6827
lfingers 7.12502
lthumb -20.8266 -10.7804
rfemur -40.3629 -1.79833 21.8537
rtibia 102.322
rfoot -25.2775 6.8662
rtoes -2.18542
lfemur -41.0336 24.5351 -2.89864
ltibia 105.229
lfoot -22.5049 0.784504
ltoes -25.1507
278
root -15.7098 8.81603 2.01034 8.56147 87.5395 -42.3829
lowerback 33.3182 4.31666 -0.972196
upperback 9.39013 6.12528 3.13081
thorax -7.06429 3.09941 1.59891
lowerneck -30.2825 10.2329 1.05086
upperneck 21.0389 20.9243 -21.019
head 15.3278 6.52983 -3.84191
rclavicle 6.04305e-014 6.01324e-014
rhumerus 52.7773 -4.86736 -37.9102
rradius 28.687
rwrist -11.9808
rhand -44.1556 -53.171
rfingers 7.12502
rthumb -16.971 637.55
lclavicle 6.04305e-014 6.01324e-014
lhumerus 25.2131 -22.4541 62.9836
lradius 42.7598
lwrist 17.5388
lhand -47.6254 -40.6439
lfingers 7.12502
lthumb -20.3085 -11.6857
rfemur -40.9408 -1.9804 21.7285
rtibia 103.21
rfoot -25.2859 7.56628
rtoes -2.85068
lfemur -41.6307 24.3881 -2.63852
ltibia 106.216
lfoot -22.7204 0.495906
ltoes -26.51
279
root -15.8551 8.8336 1.97458 7.19065 87.6152 -43.4644
lowerback 33.6669 4.60938 -0.924055
upperback 9.47836 6.50712 3.13154
thorax -7.10854 3.27695 1.42069
lowerneck -30.2487 10.0507 0.69726
upperneck 20.8749 20.7386 -20.8996
head 15.1575 6.46662 -3.77772
rclavicle 1.04958e-013 4.01545e-014
rhumerus 52.4855 -5.93437 -36.2407
rradius 28.0375
rwrist -12.1891
rhand -43.4452 -53.1983
rfingers 7.12502
rthumb -16.287 637.466
lclavicle 1.04958e-013 4.01545e-014
lhumerus 27.2188 -23.0808 62.5465
lradius 42.2389
lwrist 17.5819
lhand -47.4544 -40.7683
lfingers 7.12502
lthumb -20.144 -11.7927
rfemur -41.4217 -2.29409 21.3653
rtibia 104.139
rfoot -25.3728 8.91045
rtoes -2.78282
lfemur -42.4672 24.3067 -2.56054
ltibia 107.298
lfoot -22.9206 0.229119
ltoes -27.2221
280
root -15.9984 8.85104 1.93042 8.69903 87.8226 -41.4218
lowerback 34.2732 4.77846 -0.890681
upperback 9.67012 6.74782 3.15754
thorax -7.13037 3.39259 1.31555
lowerneck -29.9047 9.92464 0.527888
upperneck 19.9342 20.5582 -21.4285
head 14.7293 6.45248 -3.97333
rclavicle 1.59028e-014 3.57812e-015
rhumerus 52.5093 -7.26758 -35.2845
rradius 27.372
rwrist -11.3518
rhand -42.0965 -52.2459
rfingers 7.12502
rthumb -14.9881 638.317
lclavicle 1.59028e-014 3.57812e-015
lhumerus 29.1238 -23.5321 62.0863
lradius 41.7444
lwrist 17.3359
lhand -47.5077 -41.0722
lfingers 7.12502
lthumb -20.1953 -12.102
rfemur -41.255 -2.92282 20.6651
rtibia 105.026
rfoot -25.4903 10.7123
rtoes -0.102138
lfemur -42.9784 23.8478 -2.59077
ltibia 108.311
lfoot -23.1795 -0.224695
ltoes -27.0644
